<?xml version="1.0" standalone="no"?>
<!DOCTYPE svg PUBLIC "-//W3C//DTD SVG 20010904//EN"
 "http://www.w3.org/TR/2001/REC-SVG-20010904/DTD/svg10.dtd">
<svg version="1.0" xmlns="http://www.w3.org/2000/svg"
 width="1254.000000pt" height="900.000000pt" viewBox="0 0 1254.000000 900.000000"
 preserveAspectRatio="xMidYMid meet">
<metadata>
Created by potrace 1.16, written by Peter Selinger 2001-2019
</metadata>
<g transform="translate(0.000000,900.000000) scale(0.100000,-0.100000)"
fill="#ffffff" stroke="none">
<path d="M6045 7094 c-16 -2 -81 -11 -144 -20 -251 -34 -483 -109 -746 -240
-196 -98 -334 -186 -353 -227 l-14 -28 12 -30 c28 -66 72 -64 177 6 285 191
667 330 1013 371 170 19 464 15 621 -10 368 -59 733 -212 1022 -430 82 -62
118 -70 155 -36 25 23 30 77 10 102 -7 8 -40 35 -73 60 -251 189 -550 333
-846 409 -226 57 -323 70 -574 74 -126 2 -243 1 -260 -1z"/>
<path d="M6095 6700 c-207 -14 -420 -57 -451 -91 -27 -30 -24 -87 6 -111 28
-23 48 -22 225 12 l120 24 235 0 235 0 117 -22 c431 -81 832 -295 1148 -612
119 -119 262 -300 338 -427 56 -93 100 -111 155 -65 40 35 9 111 -113 282
-370 519 -899 866 -1492 979 -85 16 -386 45 -408 39 -3 0 -55 -4 -115 -8z"/>
<path d="M5183 6446 c-252 -126 -442 -264 -638 -461 -155 -155 -235 -257 -235
-299 0 -40 35 -76 74 -76 31 0 43 11 181 169 187 215 431 399 725 546 l108 54
10 31 c12 33 4 68 -19 87 -37 29 -56 24 -206 -51z"/>
<path d="M6036 6310 c-516 -59 -1012 -333 -1388 -767 -182 -209 -410 -550
-410 -610 0 -59 59 -96 109 -69 12 6 56 66 96 132 285 466 607 777 1010 976
416 206 848 242 1269 105 77 -25 103 -29 125 -21 53 18 68 88 28 128 -23 23
-217 83 -346 106 -131 24 -371 34 -493 20z"/>
<path d="M7106 6019 c-26 -20 -34 -57 -20 -93 3 -8 49 -46 102 -83 114 -80
343 -304 425 -415 l57 -77 44 -6 c53 -8 100 10 104 41 7 49 -218 315 -404 479
-103 89 -229 175 -259 175 -12 0 -34 -9 -49 -21z"/>
<path d="M6070 5939 c-183 -18 -422 -99 -613 -208 -168 -97 -420 -313 -410
-352 7 -24 62 -49 110 -49 l34 0 87 76 c213 186 458 309 718 360 120 23 326
21 451 -5 246 -51 466 -168 649 -343 61 -58 101 -78 159 -78 37 0 75 25 75 48
0 21 -181 201 -265 264 -221 165 -476 265 -738 288 -124 11 -135 11 -257 -1z"/>
<path d="M6021 5559 c-197 -34 -525 -199 -587 -294 -34 -52 19 -127 79 -111
12 3 52 27 88 54 300 219 666 265 966 122 l83 -40 38 24 c20 14 49 28 65 31
18 5 27 14 27 26 0 38 -183 134 -330 174 -76 20 -343 29 -429 14z"/>
<path d="M4812 5131 c-62 -21 -94 -49 -130 -111 -14 -25 -97 -166 -185 -315
-88 -148 -183 -310 -212 -360 -281 -479 -333 -570 -329 -577 7 -11 372 -4 383
8 4 5 84 142 177 304 405 710 411 720 422 707 6 -6 64 -106 130 -222 285 -502
436 -761 452 -778 l17 -19 181 -1 c100 0 184 2 187 5 3 3 -62 122 -146 264
-83 143 -220 376 -304 519 -84 143 -188 321 -231 395 -83 140 -111 170 -183
190 -57 16 -170 11 -229 -9z"/>
<path d="M6107 5143 c-4 -3 -7 -314 -7 -689 l0 -683 18 -4 c24 -7 273 -7 295
-1 l17 5 0 690 0 689 -158 0 c-87 0 -162 -3 -165 -7z"/>
<path d="M6807 5143 c-4 -3 -7 -73 -7 -155 l0 -148 603 0 602 0 35 -18 c19 -9
45 -32 57 -51 l23 -34 0 -78 c0 -93 -11 -122 -59 -152 l-36 -22 -610 -5 -610
-5 -3 -351 -2 -352 15 -5 c8 -4 82 -3 165 0 l150 6 2 196 3 196 490 5 490 5
59 22 c124 47 218 152 251 278 17 68 20 255 5 335 -22 118 -94 222 -189 273
-27 15 -84 36 -127 47 l-77 20 -612 0 c-336 0 -615 -3 -618 -7z"/>
<path d="M5723 5051 c-155 -104 -189 -146 -167 -206 7 -18 55 -45 81 -45 11 0
45 22 76 48 32 27 86 66 122 86 49 29 67 46 75 71 19 57 -14 105 -74 105 -14
0 -64 -26 -113 -59z"/>
<path d="M4957 4128 c-9 -7 -62 -101 -118 -208 -115 -220 -182 -323 -248 -381
-61 -52 -172 -107 -246 -120 -35 -6 -69 -19 -82 -32 -29 -26 -31 -79 -3 -107
60 -60 310 25 446 152 82 77 141 165 268 401 l107 198 -11 33 c-21 65 -72 94
-113 64z"/>
<path d="M7620 3918 c-25 -27 -25 -21 5 -178 14 -71 36 -190 50 -262 36 -184
80 -276 184 -379 52 -51 99 -87 144 -109 l67 -33 30 13 c82 34 63 108 -42 168
-72 40 -144 120 -179 197 -27 61 -38 105 -95 413 -31 166 -45 192 -104 192
-27 0 -45 -7 -60 -22z"/>
<path d="M8020 3918 c-13 -14 -19 -31 -16 -44 3 -11 19 -102 35 -200 31 -196
48 -242 106 -292 47 -42 94 -44 124 -6 30 38 26 66 -14 114 -19 22 -37 55 -40
73 -2 18 -14 91 -25 162 -31 199 -40 215 -114 215 -24 0 -42 -7 -56 -22z"/>
<path d="M5173 3698 c-4 -7 -33 -63 -64 -124 -113 -223 -227 -364 -364 -449
-65 -41 -231 -105 -270 -105 -9 0 -30 -14 -47 -30 l-30 -31 7 -27 c18 -74 73
-82 226 -31 220 73 389 210 517 420 82 135 152 276 152 306 0 48 -34 83 -80
83 -21 0 -42 -6 -47 -12z"/>
<path d="M7285 3595 c-14 -13 -25 -35 -25 -48 0 -57 72 -344 106 -425 58 -135
105 -205 217 -320 65 -67 220 -177 264 -188 37 -10 76 7 91 39 l13 27 -13 27
c-7 16 -50 52 -95 83 -153 103 -274 244 -334 390 -15 38 -44 142 -63 231 -39
177 -56 209 -108 209 -17 0 -39 -10 -53 -25z"/>
<path d="M5527 3539 c-45 -26 -88 -188 -88 -328 1 -231 113 -444 298 -567 l55
-36 -4 -127 -3 -126 -28 -58 c-53 -107 -168 -212 -313 -285 -65 -33 -74 -44
-74 -96 0 -68 64 -85 153 -40 180 91 305 211 379 362 l33 67 3 169 4 169 -18
39 c-12 27 -33 48 -73 73 -113 68 -191 170 -237 305 -13 39 -19 84 -18 155 l0
100 27 76 c32 91 33 109 7 137 -23 24 -72 29 -103 11z"/>
<path d="M6130 3528 c-37 -14 -73 -40 -111 -78 l-57 -57 -21 -67 c-25 -81 -26
-131 -5 -205 28 -100 105 -183 201 -216 l38 -13 3 -386 2 -387 -31 -17 c-99
-53 -149 -135 -149 -242 0 -83 23 -133 83 -186 52 -46 102 -64 173 -64 93 0
193 69 232 159 20 46 19 146 0 192 -22 50 -86 119 -125 136 l-33 13 0 389 0
390 54 24 c70 32 125 83 161 149 l29 53 4 80 4 80 -22 58 c-31 81 -115 166
-193 195 -75 28 -163 28 -237 0z m225 -172 c41 -32 75 -95 75 -141 0 -36 -30
-104 -56 -127 -29 -25 -88 -48 -126 -48 -43 0 -113 35 -138 70 -42 59 -42 152
1 212 52 73 171 89 244 34z m-67 -1397 c65 -23 83 -106 35 -159 -62 -66 -173
-28 -173 60 0 41 29 86 64 100 29 12 38 12 74 -1z"/>
<path d="M6882 3530 c-27 -26 -28 -51 -1 -126 27 -75 37 -234 19 -312 -29
-134 -111 -249 -235 -331 -45 -30 -76 -58 -87 -81 l-18 -35 0 -176 c0 -198 13
-273 70 -393 35 -73 126 -199 184 -255 60 -58 136 -38 136 37 0 27 -11 47 -54
95 -76 87 -121 163 -152 254 l-27 78 -4 155 c-2 85 0 160 4 165 4 6 32 26 61
44 125 79 244 260 278 421 29 138 7 328 -52 441 -22 44 -85 54 -122 19z"/>
<path d="M5131 2902 c-105 -112 -241 -197 -387 -242 -40 -13 -79 -32 -91 -47
-29 -31 -30 -76 -2 -104 l21 -21 47 4 c61 6 239 78 327 134 39 24 108 79 153
122 l81 79 0 40 c0 48 -32 83 -75 83 -21 0 -40 -12 -74 -48z"/>
<path d="M7215 2818 c-55 -31 -49 -83 23 -196 96 -154 219 -274 340 -333 l44
-22 33 16 c35 17 50 52 37 88 -5 12 -51 54 -103 94 -105 80 -190 174 -239 266
-51 97 -83 117 -135 87z"/>
<path d="M5340 2495 c-83 -78 -153 -123 -276 -181 -96 -44 -114 -62 -114 -112
0 -75 73 -80 212 -15 111 53 197 111 281 193 l67 66 0 35 c0 45 -30 79 -71 79
-23 0 -46 -15 -99 -65z"/>
<path d="M6985 2480 c-60 -24 -62 -76 -7 -186 76 -151 229 -314 295 -314 29 0
67 45 67 80 l0 30 -78 78 c-89 87 -145 165 -167 233 -23 67 -65 98 -110 79z"/>
<path d="M2445 947 c-17 -8 -35 -20 -41 -28 -7 -8 -62 -108 -124 -224 -62
-115 -141 -262 -175 -325 -34 -63 -72 -134 -84 -158 l-21 -42 87 0 88 0 165
310 c91 170 170 310 177 310 6 0 51 -73 99 -162 48 -90 95 -176 104 -193 9
-16 45 -83 79 -148 l63 -117 84 0 c46 0 84 3 84 8 0 7 -99 193 -293 552 -58
107 -115 201 -126 208 -30 20 -130 25 -166 9z"/>
<path d="M3808 953 l-18 -4 0 -390 0 -389 80 0 80 0 0 395 0 395 -62 -1 c-35
-1 -71 -3 -80 -6z"/>
<path d="M4807 954 c-4 -4 -7 -38 -7 -76 l0 -68 305 0 c343 0 360 -3 388 -63
32 -67 11 -143 -48 -171 l-33 -16 -306 0 -306 0 0 -195 0 -195 75 0 75 0 1
105 c1 58 2 111 3 118 1 9 63 13 261 17 l260 5 45 21 c97 46 140 124 140 253
-1 120 -39 189 -135 239 l-50 27 -330 3 c-182 2 -334 0 -338 -4z"/>
<path d="M6765 947 c-16 -8 -37 -23 -46 -33 -15 -16 -409 -731 -409 -741 0 -1
39 -3 88 -3 l87 1 166 306 c91 169 170 308 176 310 5 2 33 -40 61 -94 29 -54
103 -192 166 -308 l114 -210 87 -3 87 -3 -6 18 c-23 60 -405 738 -422 750 -32
20 -114 26 -149 10z"/>
<path d="M8248 946 c-106 -29 -162 -108 -162 -231 0 -115 47 -180 151 -211 33
-10 108 -14 264 -14 l218 0 28 -24 c36 -31 39 -95 5 -128 l-23 -23 -267 -2
c-147 -2 -291 -3 -320 -3 l-53 0 3 -67 3 -68 335 0 335 0 42 22 c151 81 150
318 -1 401 l-31 17 -247 5 -246 5 -26 24 c-35 33 -36 89 -2 128 l24 28 312 3
311 3 -3 72 -3 72 -300 2 c-216 1 -313 -2 -347 -11z"/>
<path d="M9895 951 c-77 -19 -146 -81 -164 -148 -16 -55 -13 -138 4 -181 20
-47 50 -79 100 -105 l40 -22 248 -5 249 -5 19 -24 c28 -35 25 -92 -7 -122
l-26 -24 -314 -3 -314 -3 0 -70 0 -70 338 3 337 3 31 17 c108 59 146 219 79
333 -18 31 -39 50 -77 69 l-52 26 -223 0 c-247 0 -270 5 -293 59 -17 42 2 96
40 116 l29 15 296 0 295 0 0 75 0 75 -302 -1 c-167 -1 -316 -4 -333 -8z"/>
</g>
</svg>
