<?xml version="1.0" standalone="no"?>
<!DOCTYPE svg PUBLIC "-//W3C//DTD SVG 20010904//EN"
 "http://www.w3.org/TR/2001/REC-SVG-20010904/DTD/svg10.dtd">
<svg version="1.0" xmlns="http://www.w3.org/2000/svg"
 width="455.000000pt" height="468.000000pt" viewBox="0 0 455.000000 468.000000"
 preserveAspectRatio="xMidYMid meet">
<metadata>
Created by potrace 1.16, written by Peter Selinger 2001-2019
</metadata>
<g transform="translate(0.000000,468.000000) scale(0.100000,-0.100000)"
fill="#ffffff" stroke="none">
<path d="M2115 4389 c-215 -29 -496 -126 -694 -239 -179 -102 -211 -140 -161
-190 29 -29 46 -25 120 25 601 403 1418 390 2004 -31 49 -35 99 -64 111 -64
31 0 57 33 53 66 l-3 29 -100 72 c-200 144 -474 262 -730 314 l-110 22 -210 3
c-115 1 -241 -2 -280 -7z"/>
<path d="M2185 4094 c-220 -32 -281 -48 -300 -78 -18 -27 -6 -72 21 -83 9 -3
78 4 154 16 364 59 718 3 1020 -161 255 -139 470 -334 620 -563 33 -49 67
-100 75 -112 30 -43 105 -19 105 33 0 11 -21 53 -46 94 -260 422 -702 732
-1184 830 -101 21 -387 35 -465 24z"/>
<path d="M1548 3908 c-233 -113 -456 -291 -621 -492 -65 -80 -73 -115 -32
-142 31 -20 67 -12 89 21 38 57 164 190 249 262 113 94 232 173 366 242 114
58 135 83 108 124 -27 41 -50 39 -159 -15z"/>
<path d="M2080 3780 c-389 -74 -738 -299 -1032 -665 -63 -79 -222 -319 -232
-352 -8 -26 7 -58 33 -72 36 -20 60 0 122 101 193 312 431 555 687 702 328
189 726 239 1045 130 39 -13 80 -24 92 -24 51 0 74 75 33 105 -32 22 -166 61
-273 79 -123 22 -352 19 -475 -4z"/>
<path d="M3007 3572 c-33 -36 -17 -78 40 -113 78 -49 212 -170 287 -260 43
-52 87 -104 97 -117 l20 -23 46 3 c71 5 75 23 21 99 -99 139 -266 304 -392
389 -65 44 -94 49 -119 22z"/>
<path d="M2175 3510 c-166 -26 -370 -110 -512 -210 -73 -51 -211 -172 -226
-197 -12 -20 9 -41 51 -52 43 -12 58 -5 132 62 127 116 318 216 490 257 73 17
124 22 220 22 l125 0 95 -25 c167 -43 298 -115 443 -241 l77 -67 52 3 53 3 3
19 c5 26 -143 173 -243 241 -186 125 -363 183 -575 190 -69 2 -152 0 -185 -5z"/>
<path d="M2247 3228 c-150 -11 -313 -74 -454 -174 -66 -47 -83 -77 -64 -113
23 -42 54 -37 144 23 153 102 287 146 441 146 109 0 195 -19 278 -61 l61 -31
53 26 c30 15 54 32 54 39 0 20 -114 83 -200 112 -93 31 -198 42 -313 33z"/>
<path d="M1255 2897 c-17 -7 -40 -19 -52 -27 -24 -18 -603 -991 -603 -1015 0
-3 65 -5 144 -5 l143 0 108 188 c60 103 160 277 223 387 64 110 119 204 123
208 3 5 56 -78 117 -185 229 -403 335 -583 346 -590 15 -10 286 -10 286 0 0 5
-64 118 -143 253 -79 134 -201 343 -271 464 -174 298 -171 294 -219 316 -48
21 -154 25 -202 6z"/>
<path d="M2245 2898 c-3 -7 -4 -245 -3 -528 l3 -515 122 -3 121 -3 4 408 c2
224 2 463 0 531 l-3 122 -120 0 c-86 0 -121 -3 -124 -12z"/>
<path d="M2776 2888 c-2 -13 -4 -66 -3 -118 l2 -95 476 -5 476 -5 17 -14 c34
-29 48 -71 44 -134 l-4 -60 -32 -28 -32 -29 -464 0 -464 0 -11 -14 c-9 -10
-11 -86 -9 -273 l3 -258 128 -3 127 -3 0 155 0 155 383 3 382 3 55 26 c67 32
113 77 148 144 l27 50 0 145 0 145 -28 57 c-34 69 -90 120 -166 150 l-56 23
-497 3 -497 3 -5 -23z"/>
<path d="M1978 2852 c-75 -44 -147 -105 -154 -130 -9 -33 11 -70 40 -78 l25
-6 80 60 c44 33 89 63 99 67 18 5 32 32 32 63 0 18 -37 52 -57 52 -10 0 -39
-13 -65 -28z"/>
<path d="M1368 2128 c-9 -7 -55 -87 -102 -177 -48 -90 -103 -184 -121 -208
-62 -82 -143 -134 -242 -156 -70 -16 -100 -48 -84 -90 13 -34 45 -42 115 -27
82 17 186 73 246 132 65 63 115 140 209 320 l72 137 -17 33 c-25 49 -46 59
-76 36z"/>
<path d="M3412 1974 c-27 -19 -27 -28 -1 -162 61 -320 76 -363 157 -453 48
-53 129 -111 170 -122 15 -3 31 2 49 17 38 33 26 67 -40 109 -64 42 -123 106
-148 162 -20 44 -23 57 -65 283 l-26 142 -26 20 c-30 24 -41 25 -70 4z"/>
<path d="M3721 1974 l-23 -17 5 -41 c19 -149 42 -266 59 -303 35 -75 98 -103
138 -63 27 27 25 41 -9 83 l-28 36 -17 113 c-24 159 -31 183 -61 196 -33 15
-36 15 -64 -4z"/>
<path d="M1532 1798 c-5 -7 -29 -51 -52 -98 -118 -237 -246 -356 -440 -409
-99 -28 -126 -65 -80 -111 26 -26 53 -25 144 4 209 66 340 190 478 451 52 99
56 126 22 159 -19 19 -58 21 -72 4z"/>
<path d="M3146 1716 l-24 -23 25 -119 c14 -65 39 -154 55 -197 59 -156 175
-293 319 -379 l71 -42 27 15 c20 11 26 22 26 49 l0 35 -70 48 c-88 60 -146
116 -196 189 -51 75 -75 138 -109 286 -36 160 -68 195 -124 138z"/>
<path d="M1795 1666 c-30 -30 -55 -111 -62 -201 -14 -178 69 -359 208 -458
l59 -41 0 -93 c0 -60 -5 -106 -15 -129 -36 -86 -122 -172 -225 -224 -25 -12
-53 -29 -62 -38 -24 -20 -23 -65 2 -87 l20 -18 38 11 c95 29 225 129 291 225
55 80 71 141 71 267 0 133 -9 156 -83 203 -162 104 -229 315 -158 495 23 57
18 82 -19 102 -28 15 -38 13 -65 -14z"/>
<path d="M2288 1676 c-84 -23 -148 -87 -174 -173 -18 -59 -18 -87 2 -152 19
-64 93 -145 145 -159 l34 -8 3 -302 c2 -241 0 -302 -11 -302 -24 0 -89 -63
-108 -104 -73 -161 87 -328 249 -261 103 44 152 168 103 264 -20 38 -83 101
-101 101 -6 0 -10 115 -10 304 l0 304 28 7 c39 8 97 58 127 110 112 190 -74
430 -287 371z m139 -136 c97 -59 75 -209 -36 -240 -60 -16 -127 14 -156 70
-60 117 78 240 192 170z m-17 -1090 c46 -46 9 -130 -57 -130 -44 0 -73 30 -73
75 0 22 8 43 20 55 12 12 33 20 55 20 22 0 43 -8 55 -20z"/>
<path d="M2853 1680 c-33 -13 -36 -42 -12 -121 l22 -71 -5 -88 c-8 -140 -69
-244 -189 -321 -72 -46 -79 -65 -79 -220 0 -198 35 -302 147 -442 63 -78 94
-95 129 -72 37 24 32 67 -15 118 -104 114 -141 214 -141 386 l0 117 38 22 c48
27 130 113 164 172 68 117 88 293 48 422 -28 93 -56 118 -107 98z"/>
<path d="M1540 1223 c-8 -3 -37 -29 -65 -56 -69 -70 -151 -120 -257 -158 -97
-35 -117 -55 -98 -104 13 -34 49 -40 112 -19 139 46 233 102 321 189 l57 58 0
33 c0 23 -7 38 -22 48 -24 17 -25 17 -48 9z"/>
<path d="M3074 1105 l-16 -25 11 -31 c16 -46 86 -146 145 -207 127 -133 246
-173 246 -82 0 32 -13 48 -67 84 -58 39 -154 141 -188 201 -40 71 -54 85 -86
85 -19 0 -34 -8 -45 -25z"/>
<path d="M1665 884 c-69 -63 -124 -100 -203 -136 -37 -17 -75 -38 -84 -46 -27
-22 -23 -68 7 -88 l24 -16 38 12 c145 47 343 197 343 259 0 26 -33 61 -57 61
-10 0 -40 -21 -68 -46z"/>
<path d="M2897 852 c-24 -27 -21 -55 14 -125 37 -75 98 -156 153 -203 62 -53
126 -43 126 21 0 10 -33 53 -74 96 -45 47 -86 102 -101 137 -15 31 -34 65 -43
75 -20 22 -55 22 -75 -1z"/>
</g>
</svg>
