<?xml version="1.0" standalone="no"?>
<!DOCTYPE svg PUBLIC "-//W3C//DTD SVG 20010904//EN"
 "http://www.w3.org/TR/2001/REC-SVG-20010904/DTD/svg10.dtd">
<svg version="1.0" xmlns="http://www.w3.org/2000/svg"
 width="806.000000pt" height="125.000000pt" viewBox="0 0 806.000000 125.000000"
 preserveAspectRatio="xMidYMid meet">
<metadata>
Created by potrace 1.16, written by Peter Selinger 2001-2019
</metadata>
<g transform="translate(0.000000,125.000000) scale(0.100000,-0.100000)"
fill="#ffffff" stroke="none">
<path d="M1215 919 c-24 -12 -26 -15 -90 -134 -80 -151 -186 -347 -217 -402
l-29 -53 68 0 69 0 125 232 c68 127 129 233 134 235 10 3 64 -89 160 -272 26
-49 61 -114 77 -142 l29 -53 65 0 c35 0 64 2 64 5 0 3 -42 83 -93 178 -52 95
-118 217 -146 272 -66 125 -87 145 -149 144 -26 0 -56 -5 -67 -10z"/>
<path d="M2250 630 l0 -300 65 0 65 0 -2 298 -3 297 -62 3 -63 3 0 -301z"/>
<path d="M3027 924 c-4 -4 -7 -29 -7 -56 l0 -48 230 0 c264 0 290 -5 309 -63
14 -43 7 -78 -23 -106 -21 -20 -35 -21 -266 -23 l-245 -3 -3 -147 -3 -148 61
0 60 0 0 89 0 89 203 4 c227 4 255 11 305 76 24 31 27 46 30 121 4 102 -12
139 -77 186 l-43 30 -262 3 c-144 2 -265 0 -269 -4z"/>
<path d="M4513 915 c-24 -16 -30 -27 -233 -400 -51 -93 -95 -173 -97 -177 -2
-5 26 -8 64 -8 l68 0 126 232 c69 128 130 233 135 235 8 3 231 -399 250 -449
5 -15 19 -18 75 -18 38 0 69 2 69 3 0 2 -31 60 -68 128 -37 68 -108 197 -157
286 -60 109 -96 165 -112 172 -34 16 -95 14 -120 -4z"/>
<path d="M5629 907 c-65 -35 -91 -84 -87 -169 4 -78 23 -111 84 -142 35 -19
60 -21 226 -24 179 -3 189 -5 203 -25 19 -28 19 -57 -1 -85 -15 -22 -18 -22
-260 -22 l-244 0 0 -55 0 -55 250 0 c268 0 294 4 337 51 50 56 53 173 5 230
-44 53 -73 59 -265 59 -161 0 -176 2 -201 21 -31 25 -34 66 -7 100 19 24 21
24 255 27 l236 3 0 55 0 54 -243 0 c-236 0 -245 -1 -288 -23z"/>
<path d="M6903 919 c-90 -26 -138 -147 -98 -247 34 -83 92 -101 322 -102 156
0 162 -1 177 -22 23 -33 20 -74 -6 -92 -19 -13 -61 -16 -260 -16 l-238 0 0
-55 0 -56 263 3 c256 3 263 4 295 26 91 65 90 218 -1 286 -26 19 -45 21 -224
26 -190 5 -195 6 -214 29 -24 30 -24 62 0 92 19 24 21 24 255 27 l236 3 0 55
0 54 -237 -1 c-131 0 -252 -5 -270 -10z"/>
</g>
</svg>
